<svg width="120" height="160" viewBox="0 0 120 160" fill="none" xmlns="http://www.w3.org/2000/svg">
  <defs>
    <radialGradient id="head" cx="34%" cy="26%" r="70%">
      <stop offset="0%" stop-color="#ecf6ff"/>
      <stop offset="65%" stop-color="#91c1d8"/>
      <stop offset="100%" stop-color="#567f98"/>
    </radialGradient>
    <radialGradient id="body" cx="36%" cy="24%" r="72%">
      <stop offset="0%" stop-color="#e2eef6"/>
      <stop offset="65%" stop-color="#89b2c7"/>
      <stop offset="100%" stop-color="#4a748c"/>
    </radialGradient>
    <linearGradient id="visor" x1="28" y1="48" x2="92" y2="84" gradientUnits="userSpaceOnUse">
      <stop offset="0%" stop-color="#132f45"/>
      <stop offset="100%" stop-color="#0a2030"/>
    </linearGradient>
    <linearGradient id="limb" x1="0" y1="0" x2="1" y2="0">
      <stop offset="0%" stop-color="#c5d6de"/>
      <stop offset="100%" stop-color="#567183"/>
    </linearGradient>
  </defs>
  <ellipse cx="60" cy="156" rx="31" ry="4" fill="#102331" fill-opacity="0.24"/>
  <g>
    <rect x="22" y="26" width="76" height="62" rx="22" fill="url(#head)"/>
    <rect x="28" y="48" width="64" height="36" rx="10" fill="url(#visor)"/>
    <path d="M43 56 C47 56 49 60 46 62 C43 64 40 66 42 69 C44 72 48 71 49 68" stroke="#9bc0d2" stroke-width="2" stroke-linecap="round" fill="none"/>
    <path d="M77 56 C81 56 83 60 80 62 C77 64 74 66 76 69 C78 72 82 71 83 68" stroke="#9bc0d2" stroke-width="2" stroke-linecap="round" fill="none"/>
    <path d="M48 79 Q60 83 72 79" stroke="#9fc0d0" stroke-width="2.4" stroke-linecap="round"/>
    <rect x="32" y="92" width="56" height="40" rx="10" fill="url(#body)"/>
    <rect x="33" y="101" width="54" height="4" rx="2" fill="#d78d8d"/>
    <rect x="33" y="106" width="54" height="4" rx="2" fill="#d2c088"/>
    <rect x="33" y="111" width="54" height="4" rx="2" fill="#8dc3a0"/>
    <circle cx="60" cy="124" r="4" fill="#9fc6d6"/>
    <rect x="18" y="94" width="16" height="28" rx="8" fill="url(#limb)"/>
    <rect x="86" y="94" width="16" height="28" rx="8" fill="url(#limb)"/>
    <rect x="38" y="130" width="18" height="22" rx="9" fill="url(#limb)"/>
    <rect x="64" y="130" width="18" height="22" rx="9" fill="url(#limb)"/>
    <rect x="34" y="148" width="24" height="10" rx="5" fill="#5d7280"/>
    <rect x="62" y="148" width="24" height="10" rx="5" fill="#5d7280"/>
  </g>
</svg>
